<svg xmlns="http://www.w3.org/2000/svg" viewBox="0 0 200 200" preserveAspectRatio="xMidYMid meet">
 <defs>
  <style>.cls-1{fill:#1d4c86;}</style>
 </defs>
 <g>
  <title>background</title>
  <rect fill="none" id="canvas_background" height="202" width="202" y="-1" x="-1"/>
 </g>
 <g>
  <title>Layer 1</title>
  <g stroke="null" id="_лой_1-2">
   <g stroke="null" id="svg_1">
    <path stroke="null" id="svg_2" d="m49.31674,66.36183s0.13964,-0.27928 0.13964,-0.41892c-0.41892,-0.65166 -0.83784,1.07058 -0.13964,0.41892z" class="cls-1"/>
    <path stroke="null" id="svg_3" d="m49.82875,65.80327c0.51202,0.32583 1.25676,0.65166 1.11712,-0.13964c-0.27928,-0.65166 -1.25676,-0.55856 -1.11712,0.13964z" class="cls-1"/>
    <path stroke="null" id="svg_4" d="m167.87149,52.39778c0.6982,3.90993 2.42043,0.55856 2.23425,-1.58259c-0.65166,-1.16367 -2.42043,0.60511 -2.23425,1.58259z" class="cls-1"/>
    <path stroke="null" id="svg_5" d="m170.10574,49.18605c0.32583,-0.04655 0.09309,-0.60511 -0.18619,-0.37237c-0.37237,0.32583 -0.37237,0.6982 0.18619,0.37237z" class="cls-1"/>
    <path stroke="null" id="svg_6" d="m185.79202,48.06893c0.51202,0.23273 0.46547,-0.37237 0.04655,-0.51202c-0.18619,0.13964 -0.32583,0.37237 -0.04655,0.51202z" class="cls-1"/>
    <path stroke="null" id="svg_7" d="m16.0823,59.4729c1.02403,6.60965 5.21324,0.97748 1.16367,-1.72223c-1.62914,0.13964 -1.81533,-0.23273 -1.16367,1.72223zm1.76878,-0.37237s0.51202,0.18619 0.65166,0.23273c-0.41892,0.18619 -0.74475,0.37237 -0.65166,-0.23273z" class="cls-1"/>
    <path stroke="null" id="svg_8" d="m82.17879,46.39324s0.32583,0.18619 0.41892,0.18619c0.09309,-0.46547 -0.55856,-0.83784 -0.41892,-0.18619z" class="cls-1"/>
    <path stroke="null" id="svg_9" d="m85.7629,49.79116c0,1.07058 -0.04655,1.76878 0.88439,2.56008c-0.23273,0.51202 0.51202,1.53605 1.02403,0.7913c-1.34986,-2.00151 1.90842,0.32583 1.11712,-2.23425c-0.7913,0.83784 -3.02554,-2.60662 -3.02554,-1.16367l0,0.04655zm1.11712,0.97748l0,0zm-0.60511,-0.13964s0.09309,0 0.09309,0c0,0 -0.23273,-0.04655 -0.09309,0zm0.83784,1.3964s-0.18619,0 -0.13964,-0.13964c0,0.04655 0.18619,0.18619 0.13964,0.13964z" class="cls-1"/>
    <path stroke="null" id="svg_10" d="m72.91597,69.43392c-1.07058,0.37237 1.72223,2.46698 0.7913,3.86339c0.65166,-1.76878 0.7913,0 1.3964,-0.09309c1.4895,-0.23273 0.09309,-3.95648 2.1877,-4.74778c3.63065,-1.44295 4.42195,-1.53605 7.72677,-2.46698c1.72223,-0.18619 5.95799,1.72223 6.79584,-0.13964c0.27928,-2.28079 -2.74626,-0.65166 -3.72375,-1.3964c-0.97748,-0.23273 -1.53605,-1.34986 -2.79281,-0.83784c-0.83784,-0.88439 -2.23425,0.18619 -3.53756,-0.37237c-0.55856,1.62914 -3.95648,0.83784 -3.63065,2.23425c-0.65166,0.37237 -2.51353,-0.23273 -2.51353,0.83784c-2.00151,0.37237 -2.93245,0.88439 -2.65317,3.16518l-0.04655,-0.04655zm0.37237,0.32583c0,-0.27928 0,0.09309 0,0.18619c-0.18619,-0.09309 -0.23273,-0.13964 0,-0.18619zm9.03008,-6.19073s0,0.04655 0,0.04655l0,0l0,-0.04655zm-6.93548,2.83936s0,0 0,0l0,0z" class="cls-1"/>
    <path stroke="null" id="svg_11" d="m89.02117,53.18908c-2.04806,-1.02403 -0.60511,1.16367 0.41892,1.30331c-1.25676,-0.23273 0.60511,1.16367 1.02403,1.21022c-0.74475,0 -0.37237,0.55856 0.23273,0.83784c1.21022,0.46547 0.41892,-1.02403 0.88439,-0.6982c0.37237,0.23273 3.63065,1.86187 3.39792,0.32583c-0.37237,-1.02403 -2.32734,0.18619 -1.58259,-1.11712c-0.60511,-0.32583 -0.27928,-0.88439 -0.93094,-1.44295c1.86187,-0.23273 0.23273,-1.02403 -0.60511,-0.88439c-0.60511,0.27928 -1.02403,-0.7913 -1.16367,-0.13964c-0.23273,-1.11712 -0.32583,-0.65166 -0.55856,-0.04655c-0.55856,0.18619 -0.93094,0.27928 -0.41892,0.97748c0.23273,0.27928 0.7913,1.25676 0.09309,0.6982c-0.04655,-0.13964 -0.09309,-1.67569 -0.7913,-1.07058l0,0.04655zm-0.09309,0.41892s-0.09309,-0.13964 -0.04655,-0.18619c0,0 0.09309,0.18619 0.04655,0.18619zm2.23425,2.37389s-0.88439,-0.18619 -0.37237,-0.23273c0,-0.32583 0.51202,0.18619 0.37237,0.23273zm0.83784,-1.76878s0,-0.18619 0,-0.27928c0.09309,0.09309 -0.04655,0.13964 0,0.27928zm0.6982,0.46547c-0.41892,-0.23273 -0.51202,0.27928 -0.7913,0.04655c-0.09309,-0.74475 0.51202,-0.13964 0.7913,-0.04655zm-2.00151,-1.58259s0,0 0,-0.04655c0,0 0,0 0,0.04655zm-0.09309,-0.23273s-0.09309,-0.09309 -0.09309,-0.09309c0,-0.09309 0.09309,0.09309 0.09309,0.09309zm0,1.58259c0.32583,-0.04655 0.93094,0.37237 0.7913,0.60511c0,0.41892 -1.21022,-0.97748 -0.7913,-0.60511z" class="cls-1"/>
    <path stroke="null" id="svg_12" d="m93.62931,54.58548c0.18619,0.27928 0.60511,0.23273 0.7913,0.55856c1.67569,0.09309 -1.3964,-1.81533 -0.7913,-0.55856z" class="cls-1"/>
    <path stroke="null" id="svg_13" d="m58.11408,68.96845c-0.41892,0 -0.46547,0.55856 -0.18619,0.74475c0.37237,-0.04655 0.55856,-0.55856 0.18619,-0.74475z" class="cls-1"/>
    <path stroke="null" id="svg_14" d="m66.16668,71.38889c1.34986,0.27928 3.11864,-0.23273 1.4895,-2.09461c-1.25676,-0.32583 -2.42043,1.11712 -1.4895,2.09461z" class="cls-1"/>
    <path stroke="null" id="svg_15" d="m93.30348,75.71774c0.04655,-1.25676 -2.32734,-0.65166 -1.16367,-0.23273c0.60511,-0.37237 0.97748,0.97748 1.16367,0.23273z" class="cls-1"/>
    <path stroke="null" id="svg_16" d="m92.93111,76.04357s-0.32583,-0.23273 -0.51202,-0.23273c-0.6982,0.46547 0.97748,1.21022 0.51202,0.23273z" class="cls-1"/>
    <path stroke="null" id="svg_17" d="m112.57387,66.54802c-4.70123,5.8649 6.51656,1.25676 1.4895,0c0.41892,-0.65166 -1.07058,-1.02403 -1.4895,0z" class="cls-1"/>
    <path stroke="null" id="svg_18" d="m106.47623,64.73269c-0.09309,0.55856 1.16367,0.93094 2.09461,1.02403c-0.13964,1.02403 3.30482,2.65317 3.58411,1.11712c-0.23273,-1.11712 1.02403,-2.37389 -0.93094,-2.51353c-0.88439,-0.88439 0.23273,-0.7913 0.09309,-1.3964c-0.6982,-0.65166 -1.07058,-1.76878 -2.23425,-0.97748c-1.34986,-0.18619 -0.65166,0.93094 -1.3964,1.02403c-0.65166,0 -0.46547,0.55856 -0.23273,0.83784c-0.46547,-0.18619 -1.07058,-0.09309 -0.55856,0.37237c0.97748,0.93094 -1.76878,0.04655 -0.46547,0.55856l0.04655,-0.04655zm1.76878,0.27928s0.13964,-0.09309 0.18619,-0.09309c0,0 -0.27928,0.13964 -0.18619,0.09309zm-0.74475,0c0.46547,0.09309 0.41892,0.18619 0,0.18619c-0.27928,-0.04655 -0.46547,-0.41892 0,-0.18619z" class="cls-1"/>
    <path stroke="null" id="svg_19" d="m94.74643,78.09163s0.09309,-0.60511 0,-0.74475c-0.51202,-1.25676 -1.62914,1.72223 -0.93094,0.74475c0.23273,0.23273 0.83784,0.55856 0.88439,0l0.04655,0z" class="cls-1"/>
    <path stroke="null" id="svg_20" d="m109.08285,71.43543c1.76878,-0.74475 -0.88439,-1.16367 -0.6982,0c-0.41892,0.7913 -0.46547,0 -1.21022,0.6982c4.56159,0.60511 0.55856,-0.60511 1.90842,-0.65166l0,-0.04655z" class="cls-1"/>
    <path stroke="null" id="svg_21" d="m98.60982,62.40535c-0.04655,0.32583 1.07058,0.6982 0.93094,0.09309c-0.41892,-0.55856 -1.53605,-1.21022 -0.93094,-0.09309z" class="cls-1"/>
    <path stroke="null" id="svg_22" d="m98.0978,72.87838c0.37237,1.58259 0.74475,0.04655 0.97748,-0.60511c-1.11712,-0.46547 -0.51202,-0.97748 -0.97748,0.60511z" class="cls-1"/>
    <path stroke="null" id="svg_23" d="m106.80206,61.61405c0.27928,0.23273 0.83784,0.55856 1.16367,0.27928c0.46547,-0.55856 -1.34986,-0.97748 -1.16367,-0.27928z" class="cls-1"/>
    <path stroke="null" id="svg_24" d="m101.12335,60.59002c0.23273,0 0.74475,0.27928 0.93094,0.04655c0.60511,-0.65166 -1.58259,-0.97748 -0.93094,-0.04655z" class="cls-1"/>
    <path stroke="null" id="svg_25" d="m115.6925,68.96845s1.62914,0.65166 1.25676,-0.18619c-0.32583,-0.27928 -1.62914,-0.7913 -1.25676,0.18619z" class="cls-1"/>
    <path stroke="null" id="svg_26" d="m99.40112,71.24925s-1.25676,-0.27928 -0.65166,0.32583c0.65166,0.60511 2.23425,0.09309 0.65166,-0.32583z" class="cls-1"/>
    <path stroke="null" id="svg_27" d="m104.14889,70.45795c1.21022,0.18619 2.23425,-0.88439 1.25676,-0.41892c-0.27928,-0.7913 -1.4895,-0.46547 -1.25676,0.41892z" class="cls-1"/>
    <path stroke="null" id="svg_28" d="m116.85617,70.64414c-0.32583,-0.23273 -0.46547,0.32583 -0.46547,0.60511c0.46547,0.23273 1.11712,-0.46547 0.46547,-0.60511z" class="cls-1"/>
    <path stroke="null" id="svg_29" d="m95.77046,73.71623c0.23273,1.07058 1.21022,0 0.32583,-0.27928c-0.27928,0.09309 -0.41892,-0.13964 -0.32583,0.27928z" class="cls-1"/>
    <path stroke="null" id="svg_30" d="m97.81852,75.99702c0.55856,0 1.3964,1.30331 1.67569,0.46547c-0.04655,-0.37237 -2.37389,-1.62914 -1.67569,-0.46547z" class="cls-1"/>
    <path stroke="null" id="svg_31" d="m107.68645,65.89636s-0.46547,-0.13964 -0.6982,-0.18619c0.23273,0.60511 1.90842,1.16367 0.6982,0.18619z" class="cls-1"/>
    <path stroke="null" id="svg_32" d="m110.24652,72.08709c0.32583,-0.55856 -0.93094,-0.55856 -0.60511,0c0,0.51202 0.65166,0.55856 0.60511,0z" class="cls-1"/>
    <path stroke="null" id="svg_33" d="m108.05882,68.03751c-0.65166,-0.04655 -0.23273,0.74475 0.23273,0.41892c0,-0.13964 0,-0.37237 -0.23273,-0.41892z" class="cls-1"/>
    <path stroke="null" id="svg_34" d="m106.52278,69.10809c-0.27928,0.18619 0,0.6982 0.32583,0.41892c0.23273,-0.18619 -0.09309,-0.46547 -0.32583,-0.41892z" class="cls-1"/>
    <path stroke="null" id="svg_35" d="m143.57405,65.89636c-1.67569,0.6982 1.21022,1.72223 2.1877,1.02403c3.35137,-3.25828 -1.11712,-1.44295 -2.1877,-1.02403z" class="cls-1"/>
    <path stroke="null" id="svg_36" d="m141.94491,72.97148c-1.4895,1.25676 4.46849,-0.27928 2.46698,-1.44295c-0.6982,-0.60511 -1.86187,-0.27928 -2.28079,0c-0.09309,-1.02403 -1.53605,-0.55856 -1.02403,0.27928c0.32583,0.7913 1.30331,-0.13964 0.83784,1.21022l0,-0.04655z" class="cls-1"/>
    <path stroke="null" id="svg_37" d="m136.1731,69.57356c0.09309,0.55856 0.41892,1.81533 0.97748,0.7913c0.23273,-0.46547 -1.21022,-1.72223 -0.97748,-0.7913z" class="cls-1"/>
    <path stroke="null" id="svg_38" d="m138.91937,73.48349c-0.18619,-0.37237 -0.74475,-0.51202 -1.07058,-0.55856c-1.21022,0 1.30331,1.58259 1.07058,0.55856z" class="cls-1"/>
    <path stroke="null" id="svg_39" d="m142.87585,63.33629c0.60511,0 0.93094,-0.65166 0.55856,-1.11712c-0.32583,0.18619 -0.7913,0.6982 -0.55856,1.11712z" class="cls-1"/>
    <path stroke="null" id="svg_40" d="m159.58616,67.75823c0.23273,0.23273 0.83784,-0.46547 0.27928,-0.46547c-0.41892,-0.41892 -0.97748,0.37237 -0.27928,0.46547z" class="cls-1"/>
    <path stroke="null" id="svg_41" d="m145.94794,62.49844c0.51202,0.09309 0.46547,-0.37237 0.18619,-0.65166c-0.32583,0 -0.55856,0.55856 -0.18619,0.65166z" class="cls-1"/>
    <path stroke="null" id="svg_42" d="m123.41928,77.71925c0.74475,0.23273 0.23273,-1.02403 -0.13964,-0.37237c0,0.13964 -0.09309,0.32583 0.13964,0.37237z" class="cls-1"/>
    <path stroke="null" id="svg_43" d="m160.14472,67.29277s0.55856,-0.18619 0.74475,-0.37237c-0.46547,-0.41892 -0.97748,-0.18619 -0.74475,0.37237z" class="cls-1"/>
    <path stroke="null" id="svg_44" d="m161.02911,66.92039s0.32583,-0.13964 0.32583,-0.27928c0.74475,-0.65166 -1.11712,-0.13964 -0.32583,0.27928z" class="cls-1"/>
    <path stroke="null" id="svg_45" d="m146.32031,58.96088s0.55856,-0.18619 0.32583,-0.37237c-0.27928,-0.18619 -0.55856,0.09309 -0.32583,0.37237z" class="cls-1"/>
    <path stroke="null" id="svg_46" d="m136.87131,68.40989c1.4895,8.28533 11.35742,-6.00454 2.37389,-0.97748c0.41892,0.74475 -0.46547,0.09309 -1.02403,0.23273c-0.32583,0 0.65166,-1.44295 -0.04655,-0.55856c0.27928,-1.58259 -1.21022,3.11864 -1.30331,1.34986l0,-0.04655zm4.14267,-0.93094l0,0.09309s0.04655,-0.18619 0,-0.09309zm-0.09309,0.32583s-0.04655,-0.04655 -0.04655,-0.09309c0.13964,-0.18619 0,0 0.04655,0.09309z" class="cls-1"/>
    <path stroke="null" id="svg_47" d="m172.57272,97.73439c-0.51202,-0.09309 -0.46547,0.46547 -0.37237,0.83784c0.41892,0.13964 0.65166,-0.60511 0.37237,-0.83784z" class="cls-1"/>
    <path stroke="null" id="svg_48" d="m192.26202,128.64148c-0.7913,-1.11712 -0.6982,1.16367 -1.16367,1.07058c-0.55856,-1.02403 -1.3964,4.28231 -0.13964,3.35137c-0.13964,-1.53605 1.25676,-3.21173 1.30331,-4.42195z" class="cls-1"/>
    <path stroke="null" id="svg_49" d="m189.14339,136.13551c1.21022,1.07058 0.37237,-2.00151 1.21022,-2.74626c-1.21022,-0.97748 -1.3964,2.00151 -1.21022,2.74626z" class="cls-1"/>
    <path stroke="null" id="svg_50" d="m193.47224,125.70903c0.23273,-0.46547 0.23273,-2.37389 -0.32583,-1.44295c0.60511,0.32583 -0.55856,1.34986 -0.65166,2.56008c0,2.46698 1.21022,-0.23273 0.97748,-1.11712z" class="cls-1"/>
    <path stroke="null" id="svg_51" d="m193.89116,113.46721c-0.18619,-1.11712 -0.88439,-0.41892 -0.46547,0.41892c0.09309,0.51202 0.60511,0.27928 0.18619,0.65166c0.55856,1.11712 0.93094,-0.74475 0.27928,-1.02403l0,-0.04655z" class="cls-1"/>
    <path stroke="null" id="svg_52" d="m191.70346,133.80817c-0.23273,0.32583 -1.02403,0.65166 -0.55856,1.16367c0.60511,0.13964 0.7913,-0.74475 0.55856,-1.16367z" class="cls-1"/>
    <path stroke="null" id="svg_53" d="m194.21699,115.46873c0.04655,-0.60511 -1.25676,-0.13964 -0.88439,0.27928c0.41892,0.13964 0.88439,0.93094 0.88439,-0.27928z" class="cls-1"/>
    <path stroke="null" id="svg_54" d="m192.44821,109.60383c-0.41892,-0.23273 -0.93094,0.41892 -0.37237,0.60511c0.37237,0.13964 0.7913,-0.32583 0.37237,-0.60511z" class="cls-1"/>
    <path stroke="null" id="svg_55" d="m193.98426,118.40118c0.27928,0.13964 0.60511,-0.23273 0.27928,-0.41892c-0.37237,-0.32583 -0.83784,0.32583 -0.27928,0.41892z" class="cls-1"/>
    <path stroke="null" id="svg_56" d="m194.58937,118.91319c-0.60511,-0.65166 -0.6982,0.65166 0,0.55856c0,-0.18619 0.09309,-0.37237 0,-0.55856z" class="cls-1"/>
    <path stroke="null" id="svg_57" d="m194.44973,120.77506c0.04655,-2.00151 -0.97748,1.86187 -0.32583,1.90842c1.11712,-0.13964 -0.13964,-2.14115 0.32583,-1.90842z" class="cls-1"/>
    <path stroke="null" id="svg_58" d="m192.68095,113.6534c0.46547,0.09309 0.41892,-0.46547 0.04655,-0.60511c-0.32583,0.04655 -0.41892,0.51202 -0.04655,0.60511z" class="cls-1"/>
    <path stroke="null" id="svg_59" d="m179.27546,134.73911c-0.23273,-0.27928 -0.65166,0 -0.37237,0.23273c0.23273,0.37237 0.65166,0.13964 0.37237,-0.23273z" class="cls-1"/>
    <path stroke="null" id="svg_60" d="m191.28454,135.34422c-0.6982,-0.60511 -0.97748,1.02403 -0.83784,1.53605c0.51202,-0.55856 0.6982,-0.93094 0.83784,-1.53605z" class="cls-1"/>
    <path stroke="null" id="svg_61" d="m189.37612,105.6008c2.60662,1.21022 2.09461,2.56008 3.63065,2.60662c0.93094,0.46547 -0.88439,1.44295 0,2.42043c-1.21022,0.93094 1.07058,2.32734 0.65166,0.65166c1.11712,-3.49101 -1.21022,-7.40094 -0.97748,-10.51958c2.51353,-0.27928 -2.93245,-1.81533 -1.07058,-4.14267c2.28079,-0.97748 -0.18619,-2.09461 -1.25676,-2.83936c-0.18619,-0.55856 -1.25676,-2.00151 0,-1.67569c1.25676,-0.51202 -0.32583,-1.90842 -1.16367,-2.04806c-0.97748,1.30331 -1.16367,-1.86187 -2.04806,-1.90842c-3.21173,2.69972 -0.97748,-1.58259 -3.72375,-3.63065c0.18619,-0.18619 0,-0.46547 0.04655,-0.6982c1.25676,0.88439 -0.32583,-1.25676 1.11712,-0.37237c0.37237,-0.41892 0,-1.02403 -0.18619,-1.30331c0,-2.69972 0.55856,0.51202 1.34986,-0.27928c-0.55856,-2.04806 -0.23273,-5.12015 2.51353,-4.3754c0.60511,-3.35137 -3.02554,-10.47303 0.93094,-13.40548c-0.74475,-2.56008 -5.8649,-0.18619 -5.72526,-2.65317c0,-1.11712 -0.23273,-2.42043 -1.21022,-2.979c-0.46547,0 -2.1877,0.18619 -0.83784,-0.51202c2.69972,0.6982 1.3964,-1.11712 2.69972,-2.32734c2.09461,0.74475 4.28231,-1.4895 4.3754,-3.49101c-0.7913,0.46547 -1.02403,0.41892 -0.93094,-0.37237c-0.60511,0.13964 -0.55856,0.46547 -0.83784,-0.09309c-2.00151,0 0.27928,-2.1877 -1.4895,-2.46698c-0.18619,-2.65317 -4.65468,1.67569 -4.93396,3.16518c-2.93245,-0.13964 -9.5421,3.77029 -11.54361,6.93548c-0.32583,0.6982 -3.39792,2.42043 -1.4895,2.83936c-0.83784,1.53605 3.02554,-0.60511 1.72223,2.04806c-0.88439,-0.7913 -1.4895,0.7913 -2.1877,-0.13964c1.86187,-1.90842 -2.42043,-1.67569 -0.93094,0.88439c-0.41892,1.44295 -2.32734,1.72223 -2.79281,3.07209c-2.56008,4.28231 -2.1877,-1.95497 -6.05109,1.11712c-3.72375,3.53756 -0.55856,3.16518 -5.53907,3.11864c-1.72223,-1.90842 -6.70274,1.3964 -8.56462,2.1877c1.30331,0.55856 -0.27928,0.60511 -0.41892,1.34986c0.41892,2.14115 2.46698,0.60511 -0.60511,2.83936c-1.76878,0.04655 -1.95497,2.74626 -3.35137,0.41892c-1.34986,0.32583 -0.32583,2.32734 -0.46547,3.25828c-0.09309,0.32583 -1.3964,-0.04655 -2.00151,-0.65166c-0.55856,-0.51202 -0.09309,-2.1877 -1.21022,-2.51353c0.7913,-3.39792 -4.84087,-0.6982 -3.16518,-2.56008c-1.07058,1.34986 -0.46547,-0.32583 -0.7913,-0.18619c-0.23273,0.18619 -0.60511,-0.7913 -0.37237,0.18619c-3.07209,2.28079 1.53605,3.30482 -4.18921,3.35137c0,-2.79281 -4.46849,0.83784 -5.02706,-1.3964c1.53605,-1.67569 -2.04806,-1.67569 -1.25676,-0.18619c2.04806,0.27928 0.13964,1.90842 0.27928,0.27928c-0.65166,0 -1.81533,0 -1.86187,0.97748c0.09309,0.32583 0.83784,0.74475 0.09309,0.41892c-0.51202,-0.37237 -0.09309,0.60511 -0.6982,0.55856c-3.07209,1.21022 0.65166,-0.97748 1.4895,-2.69972c2.28079,-0.7913 2.93245,-5.1667 1.16367,-5.02706c-0.27928,-1.81533 -3.72375,-0.37237 -4.04957,-0.27928c0.83784,-0.83784 0.41892,-1.21022 -0.60511,-1.21022c1.58259,-1.21022 -2.23425,-2.51353 -3.58411,0.13964c-0.46547,1.72223 0.04655,0.97748 -1.67569,1.11712c0.13964,1.11712 -0.83784,0.46547 -1.11712,0.7913c0.27928,-2.04806 -6.19073,0.93094 -7.16821,0.97748c-0.7913,-0.55856 -1.11712,0.7913 -1.86187,0.32583c-1.02403,0.13964 0.37237,0.7913 -0.83784,0.55856c-1.21022,0.41892 1.3964,0.83784 1.21022,1.72223c-1.25676,0.97748 -6.70274,-2.14115 -5.49252,1.16367c-1.3964,1.11712 0.83784,1.81533 0.23273,2.42043c0.60511,2.42043 -1.86187,-2.32734 -2.79281,-2.8859c-0.93094,0.23273 -1.11712,0.60511 -0.93094,1.25676c-1.58259,-0.6982 -1.76878,1.11712 -0.6982,2.1877c-1.3964,-0.60511 -1.21022,-0.97748 -0.93094,-2.14115c2.56008,-1.30331 0,-5.44598 0.27928,-2.65317c0.6982,2.23425 -2.14115,1.3964 -2.83936,2.74626c1.34986,3.90993 -5.1667,4.74778 0.37237,6.84238c-1.4895,-0.51202 -2.979,-0.13964 -2.74626,1.67569c-0.32583,1.72223 -4.09612,2.04806 -4.14267,2.79281c-0.09309,0.27928 -2.32734,-1.4895 -1.58259,-1.11712c2.28079,1.07058 3.90993,-2.09461 5.49252,-2.979c0.27928,-0.88439 -0.88439,-1.81533 0.13964,-2.51353c0.60511,-1.95497 2.65317,-3.21173 1.86187,-5.25979c2.00151,-0.7913 2.14115,-2.23425 1.95497,-3.95648c0.41892,-2.93245 -2.74626,-0.32583 -3.58411,0.6982c-0.88439,1.67569 -4.84087,0.97748 -3.81684,3.58411c-0.7913,0.46547 -1.16367,2.09461 -2.00151,1.34986c1.21022,0.7913 2.32734,3.02554 0.60511,3.53756c-0.13964,-1.58259 -5.44598,-13.40548 -5.49252,-8.28533c0.83784,0.60511 0.09309,1.81533 0.23273,2.74626c-0.55856,0.7913 -1.53605,-0.74475 -1.62914,0.55856c-1.16367,-0.18619 0.83784,-0.93094 0.93094,-1.76878c0.09309,-1.02403 -0.74475,-0.97748 -0.46547,0.04655c-0.23273,0 -1.4895,-0.55856 -1.90842,-0.27928c-0.65166,0.27928 -0.60511,-0.7913 -1.16367,-0.97748c-0.51202,-0.27928 -1.53605,0 -1.62914,-0.37237c-0.51202,-0.18619 0.41892,-1.3964 0.55856,-0.51202c0.60511,-0.23273 0.09309,-0.6982 0.6982,0.09309c1.53605,1.34986 -0.27928,-1.86187 -1.72223,-1.53605c-1.53605,-0.60511 -3.53756,-0.41892 -4.65468,-1.53605c0.09309,0.74475 -0.27928,0.41892 -0.60511,0.23273c-0.65166,-0.55856 -1.21022,0.6982 -1.86187,0.7913c-1.25676,-0.51202 -1.07058,-1.58259 -0.74475,-2.65317c0.88439,-0.46547 1.86187,1.58259 2.28079,0.23273c1.34986,-0.97748 -1.4895,-5.81835 -1.21022,-2.51353c-0.6982,0.65166 -1.62914,0.93094 -2.46698,1.44295c0.27928,1.02403 -1.11712,1.90842 -1.72223,1.72223c0.60511,-2.23425 -3.25828,-2.74626 -4.74778,-2.32734c-0.51202,1.30331 -0.41892,1.25676 -1.58259,1.16367c0.51202,-3.44446 -2.14115,-5.39943 -2.09461,-1.11712c-0.83784,1.07058 -1.25676,-0.7913 -0.37237,-1.21022c-0.13964,-0.27928 -0.51202,-0.27928 -0.60511,0.04655c0.7913,-1.25676 -0.7913,-1.81533 1.25676,-2.51353c0,-0.97748 0.74475,-1.07058 1.62914,-1.02403c0.7913,-0.60511 0.7913,-2.979 1.25676,-2.56008c2.09461,13.59167 9.58865,3.63065 6.33037,-4.3754c0.83784,0.18619 0.83784,-2.1877 -0.18619,-1.67569c0.09309,-0.27928 -0.18619,-1.30331 -0.83784,-0.41892c0.23273,-0.7913 -0.18619,-0.74475 -0.7913,-0.55856c-3.72375,-2.37389 -2.83936,2.74626 -6.51656,2.23425c-1.11712,2.32734 -2.8859,1.81533 -4.46849,2.979c-0.37237,0.60511 -1.25676,2.37389 -2.32734,1.4895c-0.93094,7.40094 -11.17124,-2.979 -8.70426,4.32885c-0.41892,-0.51202 -0.88439,-1.16367 -1.16367,-0.97748c-1.11712,-2.04806 -4.60814,0.74475 -6.51656,0.7913c-0.37237,1.3964 -1.58259,0.7913 -2.00151,2.09461c-1.11712,-0.55856 -1.44295,1.58259 -0.6982,2.09461c-1.07058,1.81533 1.76878,1.90842 -0.7913,3.49101c-1.53605,-0.37237 -1.3964,2.1877 -2.37389,2.65317c-0.60511,0.23273 0.46547,0.83784 -0.27928,1.62914c-0.09309,0.32583 -1.07058,0.04655 -1.07058,-0.46547c0,-2.79281 -4.84087,2.51353 -1.72223,2.14115c0.04655,0.6982 0.6982,1.11712 0.97748,1.58259c0.23273,0.65166 -0.83784,0.88439 -0.60511,1.58259c-0.18619,-0.74475 -1.62914,0.41892 -1.44295,0.6982c1.53605,2.04806 -1.21022,1.95497 -0.65166,3.44446c0.6982,0.65166 0.18619,1.81533 1.58259,2.1877c-0.41892,2.14115 -2.04806,2.28079 -3.6772,1.53605c-0.41892,-0.97748 -1.16367,0.23273 -1.4895,0.65166c-0.18619,0.46547 -0.46547,-0.55856 -0.88439,-0.09309c-0.51202,-0.32583 -0.09309,-2.28079 -1.21022,-2.8859c-0.6982,0 -1.07058,1.3964 -1.34986,0.37237c-1.67569,-1.3964 -0.32583,-3.21173 -2.979,-1.86187c-0.46547,-0.23273 -0.83784,-1.16367 -1.3964,-1.25676c-0.27928,0.51202 -0.7913,-0.37237 -0.83784,0.27928c-0.09309,-0.18619 -0.60511,-0.04655 -0.18619,-0.32583c-1.16367,-1.11712 0,2.42043 0.23273,3.02554c1.72223,1.81533 -1.86187,-1.30331 -2.00151,-0.09309c0.41892,0.7913 0.83784,2.14115 -0.51202,2.32734c0.83784,-2.1877 -0.7913,0.09309 -0.51202,0.88439c0.32583,1.21022 2.83936,1.16367 2.79281,2.42043c0.93094,-0.60511 0.46547,-0.04655 0.74475,0.51202c1.86187,1.58259 0.7913,3.86339 1.25676,6.23727c-0.74475,2.8859 0.97748,4.56159 2.09461,7.02857c0.6982,1.02403 0.32583,2.28079 0.46547,3.30482c0.46547,0.37237 1.53605,0.41892 1.11712,1.25676c0.97748,0 0.97748,1.53605 0.32583,1.95497c0,1.3964 1.62914,3.30482 -0.09309,3.95648c4.18921,4.09612 3.16518,-1.16367 5.12015,-2.83936c0,-1.02403 1.95497,-0.32583 1.58259,-1.11712c-0.7913,-0.27928 -0.18619,-1.58259 -0.32583,-2.23425c0.65166,-0.04655 1.72223,0.04655 2.74626,-0.46547c0.60511,0 0,1.16367 0.83784,0.46547c0.23273,-0.32583 0.32583,0.13964 0.37237,0.37237c0.65166,-0.55856 0.46547,-0.23273 0.18619,0.23273c1.58259,0.13964 3.21173,0.46547 2.23425,-1.72223c0.83784,1.30331 0.97748,-0.51202 1.53605,-1.4895c0.60511,-2.00151 -1.58259,-2.1877 -0.09309,-3.30482c-0.41892,-1.34986 0.09309,-1.53605 1.4895,-1.53605c0.60511,-1.44295 1.4895,-1.11712 2.65317,-1.62914c1.16367,-0.27928 -0.37237,1.62914 0.18619,2.1877c1.58259,0.97748 1.21022,-1.3964 2.74626,-0.83784c0.6982,0.27928 1.34986,-0.23273 2.37389,0.51202c2.00151,-0.55856 0.93094,1.72223 2.93245,1.44295c0,0.32583 -0.46547,1.02403 0.13964,1.07058c1.58259,1.11712 0.23273,2.979 0.51202,3.95648c1.11712,0 1.02403,-1.34986 1.11712,0.46547c0.18619,1.53605 1.62914,0.37237 2.32734,1.02403c1.16367,-0.23273 0.18619,1.07058 1.07058,1.11712c0.32583,0.55856 0.6982,-0.51202 0.88439,0.27928c0.60511,0.37237 0.23273,3.95648 2.09461,2.56008c0.18619,0.74475 1.81533,2.28079 2.79281,0.7913c1.30331,0.27928 -0.55856,-2.23425 -0.55856,-3.02554c3.21173,0.88439 0.97748,-2.74626 3.90993,-0.27928c1.25676,-0.23273 -0.23273,-1.3964 -0.32583,-1.81533c0.93094,0.51202 1.07058,-0.27928 0.37237,-0.6982c1.16367,-1.34986 1.53605,1.62914 2.46698,0.65166c3.30482,1.44295 6.51656,2.46698 10.05411,2.65317c1.02403,0.09309 0.7913,1.62914 2.00151,1.21022c0.27928,1.4895 -1.3964,2.09461 -0.7913,3.21173c0.65166,0.37237 1.07058,0.04655 1.25676,0.60511c0.18619,0.55856 0.04655,1.21022 1.02403,0.55856c0.55856,0.74475 -1.16367,2.37389 0.60511,1.90842c1.11712,1.21022 3.07209,-0.32583 4.93396,0.04655c-1.02403,1.81533 1.95497,7.3544 1.30331,10.47303c0.09309,1.44295 1.21022,-0.13964 1.62914,-0.23273c0.27928,-0.27928 0.55856,0.41892 0.23273,0.6982c-0.04655,0.46547 0.88439,0.13964 0.41892,0.6982c1.07058,1.72223 3.95648,-0.46547 4.18921,2.1877c-0.41892,0.7913 0.41892,1.16367 0.83784,1.62914c-0.41892,1.21022 1.25676,2.32734 2.00151,2.09461c0.83784,-0.7913 0.7913,1.95497 1.81533,1.62914c0.55856,-0.04655 1.30331,0.18619 1.3964,-0.60511c3.58411,0.6982 6.23727,-3.39792 10.00757,-0.93094c0.88439,2.46698 3.35137,1.76878 5.39943,3.02554c3.77029,-0.32583 0.18619,-4.09612 2.93245,-5.21324c0.60511,-1.07058 0.6982,-0.32583 1.62914,-0.13964c0.7913,1.02403 3.95648,0.88439 3.81684,2.1877c-0.13964,1.58259 1.44295,2.8859 2.93245,2.65317c2.42043,-0.93094 4.3754,-0.41892 6.6562,0.51202c1.62914,3.25828 6.00454,1.34986 8.65771,0.60511c1.81533,-1.81533 2.28079,-3.02554 4.93396,-1.72223c1.11712,-1.02403 2.28079,0.37237 3.63065,0.32583c3.25828,-1.62914 2.00151,-5.12015 3.77029,-8.0526c-0.41892,-0.41892 -0.18619,-1.07058 -0.65166,-1.25676c-0.32583,-0.27928 -1.21022,0.37237 -0.7913,-0.18619c3.90993,-5.72526 9.77483,-2.46698 12.61419,2.56008c0.83784,3.16518 4.42195,1.67569 6.6562,2.37389c1.34986,1.4895 0.51202,1.16367 1.86187,2.51353c2.60662,0.74475 4.79432,-6.00454 5.8649,-3.07209c-0.18619,2.04806 2.09461,8.89044 -2.04806,8.00605c-2.51353,2.74626 2.93245,5.0736 0,7.40094c0.13964,2.32734 0.60511,2.04806 1.58259,0.23273c-0.51202,-0.27928 1.4895,-0.41892 0.51202,-1.16367c0.55856,-0.18619 0.74475,-0.55856 0.88439,-1.30331c0.51202,0.7913 0.65166,1.34986 1.34986,0.41892c6.42346,-2.83936 5.25979,-14.42951 5.77181,-20.52715c-3.77029,-7.3544 -2.69972,-11.91599 2.04806,-2.00151c1.02403,1.90842 2.56008,3.63065 3.21173,6.05109c0.46547,0.41892 1.4895,1.81533 1.4895,0.51202c0,-0.37237 -0.83784,-2.00151 -0.13964,-1.72223c1.16367,-1.16367 2.37389,2.04806 1.95497,-0.27928c-0.46547,-1.81533 -3.44446,-0.97748 -4.09612,-3.35137c-2.42043,-6.47001 3.53756,-1.44295 2.1877,-3.44446c-5.12015,-2.1877 -6.93548,-8.19224 -11.0316,-10.84541c-0.13964,0.37237 0,0.60511 -0.51202,0.6982c0.7913,0.74475 2.04806,0.74475 0.65166,2.74626c1.53605,0.51202 1.4895,4.18921 0.65166,1.72223c-0.88439,-1.95497 -0.51202,-1.4895 -2.979,-1.90842c-0.7913,-1.3964 -1.58259,-0.04655 -2.979,0.13964c0.37237,0.41892 0.18619,2.1877 -0.55856,2.56008c-0.32583,-1.44295 1.07058,-1.58259 -0.55856,-1.11712c0.18619,-0.32583 0.27928,-1.86187 -0.27928,-1.25676c-0.27928,-0.55856 0.60511,-0.23273 0.65166,-0.93094c-0.93094,0.60511 -0.23273,-1.25676 -1.3964,-0.60511c-0.83784,-0.27928 -0.32583,0.83784 -0.55856,0.93094c-0.23273,-1.90842 -1.67569,2.28079 0,0.27928c0,0.46547 0.13964,0.74475 0.46547,0.18619c0.93094,0 0.09309,2.8859 -0.27928,0.74475c0.32583,-1.11712 -3.86339,2.04806 -2.28079,-0.37237c0.83784,-2.42043 1.95497,-4.32885 1.67569,-6.37691c1.4895,-3.58411 0.46547,-10.47303 5.77181,-10.61268c0.88439,-0.55856 -0.83784,-0.6982 0.60511,-1.11712c0.88439,0 1.02403,-0.37237 1.25676,-1.07058c0.23273,0.23273 0.6982,0.18619 0.97748,-0.18619c1.4895,0.13964 -1.67569,-1.76878 0.65166,-1.90842c1.4895,0.27928 0.7913,-1.11712 2.42043,-0.6982c-1.95497,1.67569 0.83784,1.62914 1.16367,0.13964c0.93094,0 0.46547,-1.07058 0.6982,-1.44295c0.60511,-0.13964 1.53605,-0.41892 0.97748,-0.88439c0.60511,-0.13964 1.07058,-0.74475 0.65166,-0.97748c-0.51202,-0.37237 0.04655,0 0.13964,-0.18619c0.46547,-0.32583 -0.32583,-0.65166 -0.37237,-0.04655c-1.58259,0.46547 -2.28079,-0.41892 -1.76878,-2.79281c0.46547,-0.37237 -0.74475,-1.11712 -0.18619,-1.76878c0.27928,-0.51202 -0.6982,-0.55856 -0.32583,-1.11712c-0.18619,-1.16367 1.21022,-1.3964 1.16367,-2.46698c0.51202,-0.09309 1.21022,0.32583 1.16367,-0.51202c0.55856,-0.13964 0.04655,1.62914 0.88439,1.16367c0.23273,1.25676 0.65166,0 1.44295,0.97748c0.60511,-1.30331 0.13964,-2.65317 0,-4.09612c0.7913,-0.27928 1.16367,-1.67569 0,-1.25676c-0.23273,-0.27928 -0.23273,-0.6982 -0.60511,-0.65166c0,-0.37237 -0.23273,-0.65166 -0.41892,-0.6982c0.27928,-0.41892 0.18619,-1.30331 0.7913,-1.21022c-0.41892,1.76878 1.95497,2.28079 2.04806,4.00303c0.7913,-0.13964 -1.02403,2.23425 0.18619,2.79281c0.37237,3.72375 0.88439,7.12166 0,10.37994c1.25676,-1.86187 0.55856,2.69972 1.72223,3.44446c1.4895,2.69972 4.32885,4.18921 6.5631,6.14418l0.13964,-0.04655zm0.18619,-13.96405s0,0 0,0l0,0zm-7.49404,-28.11428c0.37237,-0.04655 0.04655,0.27928 -0.04655,0.23273c0,-0.09309 -0.04655,-0.18619 0.04655,-0.23273zm0.88439,-0.51202s0,-0.18619 0.04655,-0.32583c0,0 0.09309,0.55856 -0.04655,0.32583zm-1.62914,-10.75232c0.13964,-0.27928 0.74475,0.09309 0.60511,0.46547c-0.37237,0.13964 -1.11712,-0.46547 -0.60511,-0.46547zm6.09763,18.94456s-0.13964,0 -0.13964,-0.09309c0,-0.09309 0.32583,0.23273 0.13964,0.09309zm-36.53925,1.25676l-0.09309,0s0.13964,0 0.09309,0zm-3.95648,0.97748s-0.09309,0.13964 -0.09309,0.09309c0,-0.04655 0,-0.13964 0.09309,-0.09309zm1.02403,1.07058l0,0zm0.04655,-0.23273c-0.09309,0.32583 0,-0.13964 0.13964,-0.18619c0.13964,0.09309 -0.09309,0.13964 -0.13964,0.18619zm-12.75383,6.42346s-0.23273,-0.27928 -0.32583,-0.37237c0.04655,0 0.27928,0.23273 0.32583,0.37237zm-38.68041,0.74475s0,0 0,0l0,0zm0,0.6982s0.13964,-0.13964 0.09309,-0.04655c0,0.04655 -0.18619,0.09309 -0.09309,0.04655zm-0.65166,2.69972s0,-0.23273 0,-0.27928c0,0 0,0.23273 0,0.27928zm-0.7913,0.51202s0,-0.09309 0,-0.13964c0,0 0,0.09309 0,0.13964zm0.88439,-1.81533s0,-0.13964 0,-0.18619c0.09309,0 0,0.09309 0,0.18619zm0.18619,-0.93094c-0.32583,0.27928 -0.37237,0.74475 -0.83784,0.60511c0.23273,-0.27928 0.55856,-0.93094 0.83784,-0.60511zm0.27928,-0.41892l0,0zm-4.60814,-0.7913s0.09309,0 0.13964,0c0,0.04655 -0.13964,0.18619 -0.13964,0zm0,0.41892s-0.09309,-0.09309 0,-0.13964c0,0 0,0.09309 0,0.13964zm-12.80038,6.47001s0,-0.09309 0,-0.13964c0.13964,-0.09309 0,0.23273 0,0.13964zm3.16518,-9.82138c0.09309,-0.41892 0,-0.88439 0.55856,-0.60511c-0.18619,0.09309 -0.46547,0.7913 -0.55856,0.60511zm6.5631,-3.6772s-0.37237,-0.18619 -0.55856,-0.23273c-0.74475,-0.27928 1.11712,-0.09309 0.55856,0.23273zm-81.41039,20.5737c-0.23273,-1.21022 -0.7913,-2.14115 -1.72223,-2.56008c0.32583,-2.979 2.93245,-0.88439 3.81684,-0.32583c0.51202,0.18619 -0.37237,0.7913 0.41892,0.6982c1.25676,0 4.70123,4.32885 2.09461,1.95497c-0.93094,0.18619 -0.93094,-1.16367 -1.3964,-0.7913c-0.6982,0.51202 0.04655,1.58259 -0.65166,1.3964c-0.7913,-0.6982 -2.32734,0.60511 -2.51353,-0.46547l-0.04655,0.09309zm-0.51202,-4.56159l-0.09309,0s0.13964,0 0.09309,0zm158.58502,29.3245l0,0s0,0 0,0zm5.49252,-2.8859s0.23273,0.18619 0.09309,0.23273c-0.09309,0 -0.13964,-0.13964 -0.09309,-0.23273zm12.56764,-54.55287c0.51202,0.41892 -0.13964,0.46547 -0.51202,0.41892c0.09309,-0.27928 0.13964,-0.7913 0.51202,-0.41892zm-39.84408,14.52261s0.46547,0.27928 0.09309,0.41892c-0.18619,0.18619 -0.37237,-0.23273 -0.09309,-0.41892zm-4.60814,2.69972s-0.37237,-0.32583 -0.55856,-0.41892c0,-0.23273 0.46547,0.37237 0.55856,0.41892zm-8.19224,-2.8859s-0.23273,-0.51202 0,-0.65166l0,0.65166zm-0.32583,-0.32583s0.09309,0.51202 -0.13964,0.41892c0.09309,-0.13964 0,-0.32583 0.13964,-0.41892zm-21.03916,-3.44446s-0.04655,0 0,0c0,0 0.09309,0 0,0zm-2.51353,-0.41892l0,0zm-14.80189,6.42346c0.23273,-0.09309 0.51202,0 0.32583,0.27928c-0.27928,0.18619 -0.51202,-0.46547 -0.32583,-0.27928zm-0.88439,-3.11864s-0.18619,-0.04655 -0.09309,-0.13964c0,0 0.09309,0.18619 0.09309,0.13964zm-2.93245,10.42649c0.65166,-1.16367 0.6982,1.90842 0.13964,1.58259c-0.23273,-0.18619 0.37237,-1.07058 -0.13964,-1.58259zm-7.12166,-5.77181s0.46547,0.74475 0,0.04655l0,0l0,-0.04655zm-7.2613,-3.07209l0,-0.37237s0,0.32583 0,0.37237zm-21.31844,-16.98959s0,-0.04655 0,-0.04655l0,0l0,0.04655zm0.09309,-0.27928s0.04655,-0.23273 0.09309,-0.27928l-0.09309,0.27928zm0.13964,1.53605l0,0zm-31.5122,49.89819s-0.09309,-0.13964 -0.04655,-0.18619c0.04655,0 0.04655,0.13964 0.04655,0.18619zm0.6982,0.27928s-0.18619,-0.13964 -0.09309,-0.18619c0.04655,0.04655 0.09309,0.04655 0.09309,0.18619zm149.78767,9.35591s-0.18619,-0.27928 -0.04655,-0.18619c0.13964,0.13964 0.37237,0.46547 0.04655,0.18619zm-8.8439,-1.34986c0.51202,0.18619 0,0.51202 -0.18619,0.51202c0.09309,-0.27928 -0.23273,-0.7913 0.18619,-0.51202zm13.77786,-35.65487s-0.13964,-0.18619 -0.09309,-0.32583c0.13964,0 0.09309,0.23273 0.09309,0.32583zm1.58259,1.53605s0,-0.23273 0,-0.27928c0,0.09309 0.09309,0.23273 0,0.27928z" class="cls-1"/>
    <path stroke="null" id="svg_62" d="m185.74547,86.98207c1.30331,0.7913 0.32583,-0.18619 0.51202,-0.97748c0.09309,-0.51202 0.60511,-1.3964 -0.32583,-1.4895c-0.83784,-0.65166 -0.46547,0.88439 -0.83784,1.34986c0,0.6982 0.83784,0 0.65166,1.16367l0,-0.04655z" class="cls-1"/>
    <path stroke="null" id="svg_63" d="m196.87016,89.63524c-0.65166,-0.09309 -2.14115,-1.07058 -2.28079,0.13964c-0.83784,0.65166 4.23576,0.41892 2.28079,-0.13964z" class="cls-1"/>
    <path stroke="null" id="svg_64" d="m198.59239,88.14574c-0.51202,0 -0.93094,0.09309 -1.3964,0.18619c-1.07058,0.7913 2.14115,0.41892 1.3964,-0.18619z" class="cls-1"/>
    <path stroke="null" id="svg_65" d="m189.79504,52.63052c1.90842,1.34986 1.53605,-1.95497 3.90993,-1.81533c-2.42043,-0.51202 0.37237,-3.16518 -3.21173,0.32583c0.37237,1.07058 -0.60511,0.7913 -0.65166,1.4895l-0.04655,0z" class="cls-1"/>
   </g>
  </g>
 </g>
</svg>